<mxfile host="Electron" modified="2023-11-21T04:47:45.211Z" agent="Mozilla/5.0 (X11; Linux x86_64) AppleWebKit/537.36 (KHTML, like Gecko) draw.io/22.1.2 Chrome/114.0.5735.289 Electron/25.9.4 Safari/537.36" etag="kIk4tCSp0SL2Z_tZujgE" version="22.1.2" type="device">
  <diagram name="Page-1" id="BeeQXuH5mpLVNXQqc5U8">
    <mxGraphModel dx="1434" dy="2007" grid="1" gridSize="10" guides="1" tooltips="1" connect="1" arrows="1" fold="1" page="1" pageScale="1" pageWidth="850" pageHeight="1100" math="0" shadow="0">
      <root>
        <mxCell id="0" />
        <mxCell id="1" parent="0" />
        <mxCell id="05oGWs5mdvqG2shkOUgz-32" style="edgeStyle=orthogonalEdgeStyle;shape=connector;rounded=0;orthogonalLoop=1;jettySize=auto;html=1;labelBackgroundColor=default;strokeColor=#A8201A;strokeWidth=2;align=center;verticalAlign=middle;fontFamily=Helvetica;fontSize=11;fontColor=#143642;endArrow=classic;fillColor=#FAE5C7;" edge="1" parent="1" source="05oGWs5mdvqG2shkOUgz-1" target="05oGWs5mdvqG2shkOUgz-26">
          <mxGeometry relative="1" as="geometry" />
        </mxCell>
        <mxCell id="05oGWs5mdvqG2shkOUgz-1" value="Start" style="ellipse;whiteSpace=wrap;html=1;aspect=fixed;strokeColor=#0F8B8D;fontColor=#143642;fillColor=#FAE5C7;strokeWidth=2;" vertex="1" parent="1">
          <mxGeometry x="385" y="-90" width="80" height="80" as="geometry" />
        </mxCell>
        <mxCell id="05oGWs5mdvqG2shkOUgz-7" value="" style="edgeStyle=orthogonalEdgeStyle;shape=connector;rounded=0;orthogonalLoop=1;jettySize=auto;html=1;labelBackgroundColor=default;strokeColor=#A8201A;strokeWidth=2;align=center;verticalAlign=middle;fontFamily=Helvetica;fontSize=11;fontColor=#143642;endArrow=classic;fillColor=#FAE5C7;" edge="1" parent="1" source="05oGWs5mdvqG2shkOUgz-2" target="05oGWs5mdvqG2shkOUgz-6">
          <mxGeometry relative="1" as="geometry" />
        </mxCell>
        <mxCell id="05oGWs5mdvqG2shkOUgz-2" value="Check next location" style="rounded=1;whiteSpace=wrap;html=1;strokeColor=#0F8B8D;fontColor=#143642;fillColor=#FAE5C7;strokeWidth=2;" vertex="1" parent="1">
          <mxGeometry x="365" y="127" width="120" height="60" as="geometry" />
        </mxCell>
        <mxCell id="05oGWs5mdvqG2shkOUgz-9" value="No&lt;br&gt;" style="edgeStyle=orthogonalEdgeStyle;shape=connector;rounded=0;orthogonalLoop=1;jettySize=auto;html=1;labelBackgroundColor=default;strokeColor=#A8201A;strokeWidth=2;align=center;verticalAlign=middle;fontFamily=Helvetica;fontSize=11;fontColor=#143642;endArrow=classic;fillColor=#FAE5C7;" edge="1" parent="1" source="05oGWs5mdvqG2shkOUgz-6" target="05oGWs5mdvqG2shkOUgz-13">
          <mxGeometry x="0.6364" y="-17" relative="1" as="geometry">
            <mxPoint x="425" y="340" as="targetPoint" />
            <mxPoint as="offset" />
          </mxGeometry>
        </mxCell>
        <mxCell id="05oGWs5mdvqG2shkOUgz-11" style="edgeStyle=orthogonalEdgeStyle;shape=connector;rounded=0;orthogonalLoop=1;jettySize=auto;html=1;labelBackgroundColor=default;strokeColor=#A8201A;strokeWidth=2;align=center;verticalAlign=middle;fontFamily=Helvetica;fontSize=11;fontColor=#143642;endArrow=classic;fillColor=#FAE5C7;entryX=0;entryY=0.5;entryDx=0;entryDy=0;exitX=0;exitY=0.5;exitDx=0;exitDy=0;" edge="1" parent="1" source="05oGWs5mdvqG2shkOUgz-6" target="05oGWs5mdvqG2shkOUgz-26">
          <mxGeometry relative="1" as="geometry">
            <mxPoint x="315" y="263" as="targetPoint" />
            <Array as="points">
              <mxPoint x="330" y="263" />
              <mxPoint x="330" y="50" />
            </Array>
          </mxGeometry>
        </mxCell>
        <mxCell id="05oGWs5mdvqG2shkOUgz-12" value="Yes" style="edgeLabel;html=1;align=center;verticalAlign=middle;resizable=0;points=[];fontSize=11;fontFamily=Helvetica;fontColor=#143642;" vertex="1" connectable="0" parent="05oGWs5mdvqG2shkOUgz-11">
          <mxGeometry x="0.1865" y="-2" relative="1" as="geometry">
            <mxPoint x="28" y="150" as="offset" />
          </mxGeometry>
        </mxCell>
        <mxCell id="05oGWs5mdvqG2shkOUgz-6" value="Are reference &lt;br&gt;and observed states &lt;br&gt;equal?" style="rhombus;whiteSpace=wrap;html=1;rounded=0;strokeColor=#0F8B8D;strokeWidth=2;align=center;verticalAlign=middle;fontFamily=Helvetica;fontSize=11;fontColor=#143642;fillColor=#FAE5C7;" vertex="1" parent="1">
          <mxGeometry x="355" y="223" width="140" height="80" as="geometry" />
        </mxCell>
        <mxCell id="05oGWs5mdvqG2shkOUgz-18" value="" style="edgeStyle=orthogonalEdgeStyle;shape=connector;rounded=0;orthogonalLoop=1;jettySize=auto;html=1;labelBackgroundColor=default;strokeColor=#A8201A;strokeWidth=2;align=center;verticalAlign=middle;fontFamily=Helvetica;fontSize=11;fontColor=#143642;endArrow=classic;fillColor=#FAE5C7;" edge="1" parent="1" source="05oGWs5mdvqG2shkOUgz-13" target="05oGWs5mdvqG2shkOUgz-17">
          <mxGeometry relative="1" as="geometry" />
        </mxCell>
        <mxCell id="05oGWs5mdvqG2shkOUgz-20" value="Yes" style="edgeLabel;html=1;align=center;verticalAlign=middle;resizable=0;points=[];fontSize=11;fontFamily=Helvetica;fontColor=#143642;" vertex="1" connectable="0" parent="05oGWs5mdvqG2shkOUgz-18">
          <mxGeometry x="0.2569" y="-2" relative="1" as="geometry">
            <mxPoint x="-27" y="6" as="offset" />
          </mxGeometry>
        </mxCell>
        <mxCell id="05oGWs5mdvqG2shkOUgz-34" style="edgeStyle=orthogonalEdgeStyle;shape=connector;rounded=0;orthogonalLoop=1;jettySize=auto;html=1;exitX=0.5;exitY=1;exitDx=0;exitDy=0;entryX=0.5;entryY=1;entryDx=0;entryDy=0;labelBackgroundColor=default;strokeColor=#A8201A;strokeWidth=2;align=center;verticalAlign=middle;fontFamily=Helvetica;fontSize=11;fontColor=#143642;endArrow=classic;fillColor=#FAE5C7;" edge="1" parent="1" source="05oGWs5mdvqG2shkOUgz-13" target="05oGWs5mdvqG2shkOUgz-14">
          <mxGeometry relative="1" as="geometry" />
        </mxCell>
        <mxCell id="05oGWs5mdvqG2shkOUgz-36" value="No" style="edgeLabel;html=1;align=center;verticalAlign=middle;resizable=0;points=[];fontSize=11;fontFamily=Helvetica;fontColor=#143642;" vertex="1" connectable="0" parent="05oGWs5mdvqG2shkOUgz-34">
          <mxGeometry x="-0.963" relative="1" as="geometry">
            <mxPoint x="10" as="offset" />
          </mxGeometry>
        </mxCell>
        <mxCell id="05oGWs5mdvqG2shkOUgz-13" value="Has inner &lt;br&gt;locations?" style="rhombus;whiteSpace=wrap;html=1;rounded=0;strokeColor=#0F8B8D;strokeWidth=2;align=center;verticalAlign=middle;fontFamily=Helvetica;fontSize=11;fontColor=#143642;fillColor=#FAE5C7;" vertex="1" parent="1">
          <mxGeometry x="520" y="223" width="140" height="80" as="geometry" />
        </mxCell>
        <mxCell id="05oGWs5mdvqG2shkOUgz-25" style="edgeStyle=orthogonalEdgeStyle;shape=connector;rounded=0;orthogonalLoop=1;jettySize=auto;html=1;entryX=0;entryY=0.5;entryDx=0;entryDy=0;labelBackgroundColor=default;strokeColor=#A8201A;strokeWidth=2;align=center;verticalAlign=middle;fontFamily=Helvetica;fontSize=11;fontColor=#143642;endArrow=classic;fillColor=#FAE5C7;exitX=0.5;exitY=0;exitDx=0;exitDy=0;" edge="1" parent="1" source="05oGWs5mdvqG2shkOUgz-14" target="05oGWs5mdvqG2shkOUgz-26">
          <mxGeometry relative="1" as="geometry">
            <Array as="points">
              <mxPoint x="260" y="50" />
            </Array>
          </mxGeometry>
        </mxCell>
        <mxCell id="05oGWs5mdvqG2shkOUgz-14" value="Add to &lt;br&gt;differences found" style="rounded=1;whiteSpace=wrap;html=1;strokeColor=#0F8B8D;strokeWidth=2;align=center;verticalAlign=middle;fontFamily=Helvetica;fontSize=11;fontColor=#143642;fillColor=#FAE5C7;" vertex="1" parent="1">
          <mxGeometry x="200" y="163" width="120" height="60" as="geometry" />
        </mxCell>
        <mxCell id="05oGWs5mdvqG2shkOUgz-24" style="edgeStyle=orthogonalEdgeStyle;shape=connector;rounded=0;orthogonalLoop=1;jettySize=auto;html=1;entryX=1;entryY=0.5;entryDx=0;entryDy=0;labelBackgroundColor=default;strokeColor=#A8201A;strokeWidth=2;align=center;verticalAlign=middle;fontFamily=Helvetica;fontSize=11;fontColor=#143642;endArrow=classic;fillColor=#FAE5C7;" edge="1" parent="1" source="05oGWs5mdvqG2shkOUgz-17" target="05oGWs5mdvqG2shkOUgz-2">
          <mxGeometry relative="1" as="geometry" />
        </mxCell>
        <mxCell id="05oGWs5mdvqG2shkOUgz-17" value="Go down one &lt;br&gt;location level" style="rounded=1;whiteSpace=wrap;html=1;strokeColor=#0F8B8D;strokeWidth=2;align=center;verticalAlign=middle;fontFamily=Helvetica;fontSize=11;fontColor=#143642;fillColor=#FAE5C7;" vertex="1" parent="1">
          <mxGeometry x="530" y="127" width="120" height="60" as="geometry" />
        </mxCell>
        <mxCell id="05oGWs5mdvqG2shkOUgz-28" value="" style="edgeStyle=orthogonalEdgeStyle;shape=connector;rounded=0;orthogonalLoop=1;jettySize=auto;html=1;labelBackgroundColor=default;strokeColor=#A8201A;strokeWidth=2;align=center;verticalAlign=middle;fontFamily=Helvetica;fontSize=11;fontColor=#143642;endArrow=classic;fillColor=#FAE5C7;" edge="1" parent="1" source="05oGWs5mdvqG2shkOUgz-26" target="05oGWs5mdvqG2shkOUgz-30">
          <mxGeometry relative="1" as="geometry">
            <mxPoint x="554.9999999999998" y="50" as="targetPoint" />
          </mxGeometry>
        </mxCell>
        <mxCell id="05oGWs5mdvqG2shkOUgz-40" value="No" style="edgeLabel;html=1;align=center;verticalAlign=middle;resizable=0;points=[];fontSize=11;fontFamily=Helvetica;fontColor=#143642;" vertex="1" connectable="0" parent="05oGWs5mdvqG2shkOUgz-28">
          <mxGeometry x="-0.6821" y="2" relative="1" as="geometry">
            <mxPoint y="-8" as="offset" />
          </mxGeometry>
        </mxCell>
        <mxCell id="05oGWs5mdvqG2shkOUgz-33" style="edgeStyle=orthogonalEdgeStyle;shape=connector;rounded=0;orthogonalLoop=1;jettySize=auto;html=1;labelBackgroundColor=default;strokeColor=#A8201A;strokeWidth=2;align=center;verticalAlign=middle;fontFamily=Helvetica;fontSize=11;fontColor=#143642;endArrow=classic;fillColor=#FAE5C7;" edge="1" parent="1" source="05oGWs5mdvqG2shkOUgz-26" target="05oGWs5mdvqG2shkOUgz-2">
          <mxGeometry relative="1" as="geometry" />
        </mxCell>
        <mxCell id="05oGWs5mdvqG2shkOUgz-39" value="Yes" style="edgeLabel;html=1;align=center;verticalAlign=middle;resizable=0;points=[];fontSize=11;fontFamily=Helvetica;fontColor=#143642;" vertex="1" connectable="0" parent="05oGWs5mdvqG2shkOUgz-33">
          <mxGeometry x="-0.4943" y="1" relative="1" as="geometry">
            <mxPoint x="14" as="offset" />
          </mxGeometry>
        </mxCell>
        <mxCell id="05oGWs5mdvqG2shkOUgz-26" value="Are there locations &lt;br&gt;left to check?" style="rhombus;whiteSpace=wrap;html=1;rounded=0;strokeColor=#0F8B8D;strokeWidth=2;align=center;verticalAlign=middle;fontFamily=Helvetica;fontSize=11;fontColor=#143642;fillColor=#FAE5C7;" vertex="1" parent="1">
          <mxGeometry x="355" y="10" width="140" height="80" as="geometry" />
        </mxCell>
        <mxCell id="05oGWs5mdvqG2shkOUgz-38" value="" style="edgeStyle=orthogonalEdgeStyle;shape=connector;rounded=0;orthogonalLoop=1;jettySize=auto;html=1;labelBackgroundColor=default;strokeColor=#A8201A;strokeWidth=2;align=center;verticalAlign=middle;fontFamily=Helvetica;fontSize=11;fontColor=#143642;endArrow=classic;fillColor=#FAE5C7;" edge="1" parent="1" source="05oGWs5mdvqG2shkOUgz-30" target="05oGWs5mdvqG2shkOUgz-37">
          <mxGeometry relative="1" as="geometry" />
        </mxCell>
        <mxCell id="05oGWs5mdvqG2shkOUgz-30" value="Report differences found" style="rounded=1;whiteSpace=wrap;html=1;strokeColor=#0F8B8D;strokeWidth=2;align=center;verticalAlign=middle;fontFamily=Helvetica;fontSize=11;fontColor=#143642;fillColor=#FAE5C7;" vertex="1" parent="1">
          <mxGeometry x="530" y="20" width="120" height="60" as="geometry" />
        </mxCell>
        <mxCell id="05oGWs5mdvqG2shkOUgz-37" value="End" style="ellipse;whiteSpace=wrap;html=1;aspect=fixed;strokeColor=#0F8B8D;fontColor=#143642;fillColor=#FAE5C7;strokeWidth=2;" vertex="1" parent="1">
          <mxGeometry x="550" y="-90" width="80" height="80" as="geometry" />
        </mxCell>
      </root>
    </mxGraphModel>
  </diagram>
</mxfile>
